<?xml version="1.0" encoding="UTF-8"?>
<!DOCTYPE svg PUBLIC "-//W3C//DTD SVG 1.1//EN" "http://www.w3.org/Graphics/SVG/1.1/DTD/svg11.dtd">
<!-- Creator: CorelDRAW 2019 (64-Bit) -->
<svg xmlns="http://www.w3.org/2000/svg" xml:space="preserve" width="97.8122mm" height="114.634mm" version="1.1" style="shape-rendering:geometricPrecision; text-rendering:geometricPrecision; image-rendering:optimizeQuality; fill-rule:evenodd; clip-rule:evenodd"
viewBox="0 0 5440 6375.56"
 xmlns:xlink="http://www.w3.org/1999/xlink"
 xmlns:xodm="http://www.corel.com/coreldraw/odm/2003">
 <defs>
  <style type="text/css">
   <![CDATA[
    .fil14 {fill:#FEFEFE;fill-rule:nonzero}
    .fil5 {fill:#FFCC6C;fill-rule:nonzero}
    .fil6 {fill:#F79E7B;fill-rule:nonzero}
    .fil7 {fill:#F48271;fill-rule:nonzero}
    .fil8 {fill:#F8F39E;fill-rule:nonzero}
    .fil11 {fill:#E37E5B;fill-rule:nonzero}
    .fil0 {fill:#E0DFDE;fill-rule:nonzero}
    .fil2 {fill:#DEBDCC;fill-rule:nonzero}
    .fil1 {fill:#DDDEDE;fill-rule:nonzero}
    .fil3 {fill:#D9AFC5;fill-rule:nonzero}
    .fil18 {fill:#D2D4D4;fill-rule:nonzero}
    .fil16 {fill:#B83850;fill-rule:nonzero}
    .fil15 {fill:#903035;fill-rule:nonzero}
    .fil13 {fill:#692A34;fill-rule:nonzero}
    .fil10 {fill:#502E34;fill-rule:nonzero}
    .fil12 {fill:#606263;fill-rule:nonzero}
    .fil17 {fill:#363435;fill-rule:nonzero}
    .fil19 {fill:#4C609A;fill-rule:nonzero}
    .fil9 {fill:#3F4C78;fill-rule:nonzero}
    .fil4 {fill:#333D5E;fill-rule:nonzero}
   ]]>
  </style>
 </defs>
 <g id="Capa_x0020_1">
  <metadata id="CorelCorpID_0Corel-Layer"/>
  <g id="_2843333738240">
   <path class="fil0" d="M577.59 6375.56l2423.51 0c0,-0.03 0,-0.04 0,-0.08l-2423.7 0c0.08,0.04 0.12,0.05 0.19,0.08zm-577.56 -282.3l0 -1104.22 -0.02 0.03 0 1104.17 0.02 0.02z"/>
   <path class="fil1" d="M5419.26 3548.54c21.31,-51.07 -3.37,-62.71 -3.37,-62.71 58.55,-68.08 -7.95,-85.21 -7.95,-85.21 0,0 9.75,-20.66 -26.1,-36.53 -9.45,-4.18 -21.64,-6.04 -35.87,-6.04 -40.91,0 -98.83,15.48 -158.14,36.51 77.35,53.5 154.38,104.81 231.42,153.98z"/>
   <path class="fil2" d="M4715.38 4244.45c5.6,-26.92 8.58,-41.73 8.58,-41.73 0,0 -8.26,-6.02 -22.07,-15.66l22.07 -79.58c0,0 -12.68,-11.42 -33.16,-27.9 22.96,-59.25 88.49,-98.95 100.34,-102.67l3.97 -1.02c1.71,-0.26 3.14,-0.33 4.18,-0.33 1.26,0 1.96,0.12 1.96,0.12 23.49,-6.36 46.97,-13.74 70.22,-22.01 172.58,-60.37 333.7,-164.19 432.77,-252.24 0,0 22.7,-13.17 18.95,-37.79 0,0 76.48,-77.62 83.95,-90.76 5.12,-8.97 9.09,-17.05 12.12,-24.33 -77.05,-49.17 -154.08,-100.48 -231.42,-153.98 -16.13,5.73 -32.35,11.85 -48.36,18.21 -81.46,32.21 -157.72,52.52 -204.25,63.31 -28.92,6.81 -46.28,9.87 -46.28,9.87 74.89,-87.03 8.73,-113.36 8.73,-113.36 0,0 -69.44,69.22 -173.94,92.49 -193.57,43.1 -230.19,270.74 -224.1,325.21 2.49,22.11 -16.8,92.31 -40.44,167.6 -2.16,-0.12 -4.29,-0.18 -6.4,-0.18 -7.81,0 -15.26,0.81 -22.27,2.63l0 0 -5.81 16.35c96.95,93.24 193.71,182.49 290.65,267.78zm-284.85 -284.12c0,0 6.81,12.03 18.29,30.06l-0.47 1.43c-7.04,-9.69 -13.14,-20.13 -17.81,-31.49z"/>
   <path class="fil1" d="M2981.1 1632.06c-14.38,-67.65 -40.71,-128.5 -76.44,-176.31 5.18,-22.84 11.26,-47.01 18.48,-72.77 18.26,-65.18 28.25,-131.26 30.49,-196.86 41.4,10.17 76.09,20.03 102.66,28.21 -5.04,-177.46 -34.34,-274.68 -37.95,-286.26 50.6,113.33 67.59,230.97 73.38,297.64 17.7,5.96 26.92,9.59 26.92,9.59 -31.02,-853.21 -676.28,-981.31 -1014.15,-989.61 0,-0.02 -11.26,-57 -268.65,-57 -98.79,0 -288.79,36.75 -471.18,148.29 -184.55,68.28 -373.57,186.08 -500.12,388.78 553.9,85.68 1268.04,330.8 2116.56,906.29z"/>
   <path class="fil2" d="M2816.86 2317.56c44.27,-70.63 74.69,-134.89 82.91,-179.33 5.95,-32.04 9.85,-61.1 12.25,-87.97 32.8,-51.29 57.78,-114.25 71.14,-185.57 15.03,-80.27 13.3,-160.32 -2.06,-232.62 -848.52,-575.48 -1562.66,-820.6 -2116.56,-906.29 -63.14,101.12 -110.74,223.4 -134.44,371.16 560.61,154.02 1273.09,498.59 2086.76,1220.62z"/>
   <path class="fil3" d="M577.39 6375.48l2423.7 0c-13.28,-284.25 -18.23,-708.71 41.71,-1037.53 128.14,243.43 266.47,473.62 374.46,571.33 165.53,149.78 351.67,250.08 515.7,250.06 108.16,0 206.74,-43.62 283.4,-145.43 174.15,-231.21 447.38,-1520.21 499.02,-1769.46 -96.94,-85.29 -193.71,-174.54 -290.65,-267.78l-21.92 61.8c-8.02,0.04 -15.24,1.08 -21.25,3.59 -210,428.53 -493.42,1461.71 -493.42,1461.71 0,0 -562.46,-1844.31 -995.28,-2118.14 -57,-41.5 -131.91,-80.62 -210.82,-115.66 30.86,-227.08 66.85,-542.85 83.74,-876.61 18.48,-25.67 35.63,-51.13 51.07,-75.82 -813.67,-722.03 -1526.15,-1066.6 -2086.76,-1220.62 -3.71,23.11 -6.82,46.81 -9.34,71.21 -82.01,796.64 53.86,1879.3 110.21,2272.76 -241.02,286.03 -477.39,889.72 -634.62,1350.88l-196.32 197.26 0 1104.22c2.2,1.07 301.27,149.52 577.37,282.22zm350.05 -1528.15c45.42,103.04 80.27,165.06 80.27,165.06 0,0 395.7,499 288.83,1164.8l-689.58 -488.42c75.34,-181.26 211.64,-518.81 320.48,-841.44z"/>
   <path class="fil4" d="M4527.63 4014.03c0,0 -264.29,-193.36 -342.42,-160.65 0,0 73.91,313.93 171.21,291.03 97.32,-22.88 171.21,-130.38 171.21,-130.38z"/>
   <path class="fil5" d="M4527.63 3918.77c0,0 -192.5,-173.31 -293.42,-147.15 0,0 103.85,184.24 190.1,196.48 86.23,12.24 103.32,-49.33 103.32,-49.33z"/>
   <path class="fil6" d="M4185.22 3997.63c94.53,243.96 301.21,-65.77 301.21,-65.77 0,-81.46 93.96,-139.11 108.38,-143.64l3.97 -1.02c3.75,-0.57 6.12,-0.23 6.12,-0.23 23.48,-6.34 46.97,-13.72 70.24,-22 172.58,-60.37 333.7,-164.2 432.77,-252.24 0,0 22.68,-13.16 18.95,-37.79 0,0 76.46,-77.61 83.95,-90.78 40.97,-71.81 8.73,-87.01 8.73,-87.01 58.55,-68.09 -7.93,-85.21 -7.93,-85.21 0,0 9.75,-20.66 -26.11,-36.56 -44.01,-19.38 -146.94,10.91 -242.36,48.68 -81.48,32.24 -157.72,52.54 -204.25,63.31 -28.94,6.81 -46.28,9.87 -46.28,9.87 74.87,-87.01 8.73,-113.35 8.73,-113.35 0,0 -69.44,69.22 -173.95,92.47 -193.57,43.13 -230.19,270.76 -224.09,325.22 6.06,54.12 -118.1,396.04 -118.1,396.04z"/>
   <path class="fil7" d="M4593.56 3376.57c0,0 -11.46,94.51 -65.92,158.4 30.98,-31.77 80.56,-89.29 101.89,-150.8 0,0 94.06,-61.04 109.38,-96.78 -28.94,6.81 -46.28,9.87 -46.28,9.87 -49.93,49.15 -99.06,79.33 -99.06,79.33z"/>
   <path class="fil7" d="M5126.86 3474.94c-5.69,-28.37 -43.5,-22.7 -69.99,0 -26.47,22.69 -107.79,78.44 -139.93,85.55 -32.16,7.12 -9.26,-211.61 -37.82,-257.64 0,0 34.04,0 104.01,-32.16 69.98,-32.14 158.17,-87.29 228.5,-58.76 0,0 -31.82,-14.99 -101.79,19.05 -69.97,34.04 -194.79,90.78 -194.79,90.78 0,0 -17.01,32.26 7.58,60.57 24.58,28.31 238.35,-136.3 296.93,-85.19 0,0 -52.97,5.71 -87.01,26.51 -34.04,20.8 -175.88,94.55 -198.58,98.34 -22.68,3.79 -11.34,69.97 11.36,79.42 0,0 98.34,-44.48 139.94,-67.63 41.61,-23.13 41.61,41.16 41.61,41.16z"/>
   <path class="fil8" d="M4527.63 3918.77c0,0 -238.27,-13.06 -293.42,-147.15l-64.96 183.13 313.92 124.26 44.46 -160.24z"/>
   <path class="fil9" d="M2696.55 3196.94c432.83,273.85 995.26,2118.15 995.26,2118.15 0,0 283.43,-1033.19 493.41,-1461.71 0,0 160.69,189.67 342.42,160.65 0,0 -314.65,1554.99 -507.6,1811.19 -192.95,256.21 -524.43,143.88 -799.12,-104.63 -274.69,-248.53 -745.83,-1354.47 -745.83,-1354.47l221.45 -1169.18z"/>
   <path class="fil10" d="M1745.15 56.55c0,0 -1118.78,-67.67 -1220.74,922.9 -101.97,990.57 132.96,2423.65 132.96,2423.65l1775.27 24.72c0,0 382.27,-2120.43 -88.1,-2771.01 -470.33,-650.59 -599.4,-600.27 -599.4,-600.27z"/>
   <path class="fil7" d="M1384.94 1352.49c0,0 38.44,262.03 70.22,727.21 5.02,72.91 9.87,150.68 14.37,233.31 15.99,291.13 27.66,641.17 27.66,1040.43l380.05 338.19c0,0 146.02,-165.95 157.14,-897.47 3.24,-190.55 -3.04,-419.74 -23.35,-694.35 -4.85,-67.16 -10.59,-137.21 -17.42,-209.96 -40.57,-438.59 -608.66,-537.36 -608.66,-537.36z"/>
   <path class="fil11" d="M1455.16 2079.7c5.02,72.91 9.87,150.68 14.37,233.31 117.82,189.65 313.24,431.59 564.85,481.15 3.24,-190.55 -3.04,-419.74 -23.35,-694.35l-555.87 -20.11z"/>
   <path class="fil12" d="M2222.15 1489.58c-42.6,227.52 49.28,453.68 205.21,505.17 155.92,51.46 316.87,-91.23 359.48,-318.75 42.59,-227.52 -49.29,-453.68 -205.21,-505.17 -155.93,-51.48 -316.87,91.23 -359.48,318.75z"/>
   <path class="fil6" d="M886.6 1642.8c8.79,21.77 17.91,43.04 27.24,63.76 151.43,340.63 500.85,606.78 794.76,751.54 176.89,87.31 333.78,130.53 415.11,119.46 216.61,-29.5 549.35,-463.78 579.74,-628.05 61.13,-328.86 -89.08,-353.46 23.36,-755.23 152.3,-543.54 -255.44,-1148.73 -1182.84,-1021.91 -997.48,136.5 -883.29,924.95 -657.38,1470.41z"/>
   <path class="fil7" d="M886.6 1642.8c8.79,21.77 17.91,43.04 27.24,63.76 151.43,340.63 500.85,606.78 794.76,751.54 -598.54,-353.46 -534.24,-959.53 -534.24,-959.53l-287.76 144.23z"/>
   <path class="fil13" d="M1480.22 979.45c0,0 -122.98,571.99 -382.1,684.26 -259.11,112.25 -474.32,-681.46 382.1,-684.26z"/>
   <path class="fil10" d="M1635.61 1336.09c11.77,-75.97 61.22,-132.99 120.47,-132.99 68.02,0 123.17,75.14 123.17,167.83 0,92.7 -55.15,167.85 -123.17,167.85 -68.02,0 -123.16,-75.15 -123.16,-167.85 -73.61,-3.65 -100.91,-38.79 -100.91,-38.79 80.52,26.58 103.59,3.94 103.59,3.94z"/>
   <path class="fil14" d="M1657.29 1387.98c0,57.66 20.61,108.07 51.86,136.64 16.99,15.71 37.24,24.76 58.92,24.76 20.6,0 39.95,-8.32 56.57,-22.6 7.59,-6.5 14.64,-14.28 20.95,-23.31 20.8,-29.1 33.63,-70.3 33.63,-115.49 0,-63.24 -25.13,-118 -61.45,-144.21 -11.57,-8.32 -24.4,-13.91 -37.95,-16.09 -3.98,-0.53 -7.77,-0.9 -11.75,-0.9 -12.83,0 -24.94,3.08 -36.32,8.87 -43.38,21.86 -74.46,81.85 -74.46,152.33z"/>
   <path class="fil15" d="M1853.36 1905.96c0,0 7.38,42.51 35.12,93.45 5.81,11.07 13.01,22.66 21.1,34.26 56.56,80.11 166.18,162.32 374,124.73 14.93,-2.63 30.39,-5.96 46.38,-9.83 0,0 11.77,-130.89 143.7,-226.97 -3.16,1.04 -34.25,12.64 -90.82,22.14 -100.65,17.03 -281.97,27.74 -529.48,-37.77z"/>
   <path class="fil16" d="M1888.48 1999.41c5.81,11.07 13.01,22.66 21.1,34.26 56.56,80.11 166.18,162.32 374,124.73 -69.38,-140.01 -295.31,-158.1 -395.1,-158.99z"/>
   <path class="fil14" d="M1853.36 1905.96c0,0 11.07,63.24 56.22,127.71 177.6,54.82 431.45,3.16 431.45,3.16l41.81 -93.1c-100.65,17.03 -281.97,27.74 -529.48,-37.77z"/>
   <path class="fil17" d="M1657.29 1387.98c0,57.66 20.61,108.07 51.86,136.64 5.97,1.43 12.11,2.16 18.27,2.16 58.72,0 106.26,-65.24 106.26,-145.66 0,-78.43 -45.18,-142.41 -101.93,-145.47 -43.38,21.86 -74.46,81.85 -74.46,152.33z"/>
   <path class="fil14" d="M1762.99 1301.89c0,26.76 15.81,48.44 35.29,48.44 19.5,0 35.32,-21.68 35.32,-48.44 0,-26.74 -15.81,-48.44 -35.32,-48.44 -19.48,0 -35.29,21.7 -35.29,48.44z"/>
   <path class="fil10" d="M2571.31 1336.09c-11.77,-75.97 -61.22,-132.99 -120.47,-132.99 -68.02,0 -123.15,75.14 -123.15,167.83 0,92.7 55.13,167.85 123.15,167.85 68.02,0 123.18,-75.15 123.18,-167.85 73.59,-3.65 100.89,-38.79 100.89,-38.79 -80.51,26.58 -103.58,3.94 -103.6,3.94z"/>
   <path class="fil14" d="M2344.55 1387.98c0,57.66 20.61,108.07 51.88,136.64 16.97,15.71 37.04,24.76 58.72,24.76 20.78,0 40.13,-8.32 56.57,-22.6 7.77,-6.5 14.82,-14.28 21.15,-23.31 20.6,-29.1 33.43,-70.3 33.43,-115.49 0,-63.24 -25.13,-118 -61.45,-144.21 -11.56,-8.32 -24.39,-13.91 -37.94,-16.09 -3.81,-0.53 -7.77,-0.9 -11.76,-0.9 -12.65,0 -24.93,3.08 -36.14,8.87 -43.38,21.86 -74.46,81.85 -74.46,152.33z"/>
   <path class="fil17" d="M2344.55 1387.98c0,57.66 20.61,108.07 51.88,136.64 5.77,1.43 11.93,2.16 18.07,2.16 58.73,0 106.26,-65.24 106.26,-145.66 0,-78.25 -45.01,-142.23 -101.75,-145.47 -43.38,21.86 -74.46,81.85 -74.46,152.33z"/>
   <path class="fil14" d="M2450.15 1301.89c0,26.76 15.8,48.44 35.29,48.44 19.5,0 35.32,-21.68 35.32,-48.44 0,-26.74 -15.81,-48.44 -35.32,-48.44 -19.5,0 -35.29,21.7 -35.29,48.44z"/>
   <path class="fil11" d="M2350.44 1796.28c19.3,0 41.16,-9.77 62.47,-28.11 25.88,-22.23 51.96,-58.74 51.96,-90.19 0,-42.52 -17.19,-53.33 -38.97,-67.02 -20.98,-13.19 -49.68,-31.23 -85.59,-91.67 -68.94,-116.13 0.12,-276.11 0.83,-277.71 3.28,-7.44 -0.1,-16.13 -7.54,-19.4 -7.44,-3.24 -16.11,0.08 -19.4,7.54 -3.12,7.12 -75.79,175.58 0.82,304.59 39.52,66.55 73.02,87.62 95.2,101.57 19.37,12.16 25.21,15.86 25.21,42.11 0,18.26 -17.93,47.42 -41.69,67.86 -17.25,14.82 -34.87,22.55 -46.99,20.74 -8.05,-1.23 -15.54,4.32 -16.74,12.34 -1.23,8.03 4.32,15.54 12.34,16.76 2.61,0.39 5.32,0.61 8.09,0.61z"/>
   <path class="fil10" d="M1597.1 1119.13c6.75,0 13.5,-2.49 18.74,-7.54 159.06,-152.29 314.97,-50.68 321.52,-46.28 12.36,8.32 29.23,5.08 37.59,-7.3 8.38,-12.38 5.18,-29.15 -7.16,-37.57 -1.96,-1.35 -198.12,-131.22 -389.42,52 -10.83,10.36 -11.18,27.52 -0.85,38.34 5.34,5.56 12.46,8.36 19.58,8.36z"/>
   <path class="fil10" d="M2674.94 1104.08c5.96,0 11.95,-1.96 16.95,-5.98 11.67,-9.38 13.54,-26.43 4.16,-38.1 -92.12,-114.64 -251.54,-78.89 -322.93,-43.97 -13.44,6.57 -19.03,22.8 -12.46,36.26 6.57,13.44 22.82,18.97 36.22,12.46 6.89,-3.31 168.99,-80.15 256.91,29.19 5.36,6.67 13.22,10.14 21.15,10.14z"/>
   <path class="fil13" d="M1297.67 801.38c188.3,150.54 182.51,275.6 182.51,275.6 63.08,-25.66 125.79,-47.16 187.59,-65.06 6.87,-103.91 11.03,-255.53 -10.48,-367.22 0,0 89.63,149.28 113.86,340.47 108.25,-24.94 213.61,-39.4 313.53,-46.09 2,-113.13 -2.35,-229.52 -19.52,-327.46 3.43,10.12 39.04,120.72 63.98,295.83 12.65,-250.83 -35.24,-434.08 -38.32,-445.46 77.89,163.91 95.24,339.75 93.43,472.58 165.37,-3.63 313.18,12.46 432.28,33.24 0.55,-76.25 -2.16,-169.5 -11.92,-274.86 0,0 46.63,111.33 56.03,283.18 86.02,16.81 154.14,35.61 199.32,49.52 -5.07,-177.47 -34.34,-274.69 -37.95,-286.26 50.6,113.3 67.59,230.95 73.36,297.64 17.72,5.96 26.94,9.57 26.94,9.57 -42.11,-1158.39 -1216.6,-980.21 -1216.6,-980.21 -433.71,120.55 -596.54,584.45 -408.04,734.98z"/>
   <path class="fil13" d="M1745.15 56.55c0,0 -1118.78,-67.67 -1220.74,922.9 -101.97,990.57 132.96,2423.65 132.96,2423.65l239.49 -2052.76 583.35 -370.88c-33.71,-435.46 264.94,-922.9 264.94,-922.9z"/>
   <path class="fil6" d="M1156.34 1541.79c-133.65,-178.16 -440.81,-284.65 -547.78,-105.52 -79.16,132.6 -40.08,302.25 43.01,405.59 118.04,146.66 457.69,185.45 552.8,-51.09 34.2,-84.99 8.69,-173.36 -48.03,-248.98z"/>
   <path class="fil11" d="M1011.51 1790.87c0,0 -69.3,-214.98 -164.05,-303.18 -96.23,-89.62 -218.06,-51.05 -236.37,150.47 0,0 61.06,-48.97 102.62,-22.33 0,0 -92.06,216.77 161.14,267.88 0,0 7.71,-141.66 136.66,-92.84z"/>
   <path class="fil12" d="M727.11 1670.22c30.86,229.4 189,415.36 353.21,415.36 164.2,0 272.31,-185.96 241.43,-415.36 -30.86,-229.4 -189,-415.38 -353.21,-415.38 -164.2,0 -272.31,185.98 -241.43,415.38z"/>
   <path class="fil18" d="M955.06 1423.04c0,0 -179.04,-1378.44 953.1,-1366.03 0,0 -11.22,-57.02 -268.65,-57.02 -257.42,0 -1134.25,248.95 -881.76,1423.04 0,0 78.56,-69.63 197.31,0z"/>
   <path class="fil18" d="M1929.11 2260.78c14.3,0 28.66,-0.26 43.24,-0.75 9.48,-0.33 16.87,-8.26 16.56,-17.76 -0.32,-9.48 -8.16,-17.38 -17.74,-16.54 -566.26,19.09 -904.63,-358.32 -907.99,-362.13 -6.26,-7.16 -17.11,-7.81 -24.21,-1.59 -7.12,6.26 -7.83,17.11 -1.57,24.23 3.38,3.83 335.43,374.53 891.7,374.53z"/>
   <path class="fil12" d="M1953.34 2279.99l72.57 0c25.04,0 45.32,-20.29 45.32,-45.33 0,-25.03 -20.28,-45.32 -45.32,-45.32l-72.57 0c-25.03,0 -45.32,20.29 -45.32,45.32 0,25.04 20.29,45.33 45.32,45.33z"/>
   <path class="fil14" d="M696.99 1677.99c23.11,171.88 141.6,311.22 264.64,311.22 123.04,0 204.01,-139.34 180.9,-311.22 -23.14,-171.89 -141.62,-311.21 -264.66,-311.21 -123.02,0 -204.01,139.32 -180.88,311.21z"/>
   <path class="fil19" d="M2815.78 6375.56l-1833.31 0c385.7,-849.74 -171.11,-1551.86 -171.11,-1551.86 0,0 -49.89,-88.72 -108.2,-230.65 -130.89,-319.21 -303.57,-907.19 -44.29,-1359.2 42.17,-73.61 143.19,-132.12 260.71,-177.62 16.15,-6.32 32.67,-12.28 49.54,-18.09 240.31,-82.91 523.51,-115.93 523.51,-115.93 447.09,183.21 538.26,0 538.26,0 0,0 455,121.39 665.64,274.74 106.99,78.01 222.04,383.33 281.08,726.96 56.92,333.25 61.13,702.35 -46.56,934.95 -175.56,379.03 -137.32,1204.68 -115.29,1516.72z"/>
   <path class="fil9" d="M-0 4603.09c178.49,-523.41 458.88,-1230.7 732.31,-1448.41 0,0 195.46,423.68 160.34,869.69 -35.14,446.02 -538.68,1609.95 -538.68,1609.95l-353.97 -279.51 0 -751.72z"/>
   <path class="fil9" d="M1327 2893.22c0,0 -158.87,50.48 -205.05,330.37l535.34 245.59 -146.27 222.46c0,0 457.6,155.04 800.02,586.69 0,0 195.36,-352.75 268.13,-586.69l-251.49 -188.82 238.62 -197.85c0,0 -212.44,-342.75 -495.06,-382.75l-81.6 139.38 -662.63 -168.36z"/>
   <path class="fil5" d="M1384.94 2907.93c0,0 567.58,471.28 859.04,1066.45 0,0 100.57,-431.65 -80.48,-928.71 -26.82,-73.65 -210.98,-6.53 -210.98,-6.53l-567.58 -131.2z"/>
   <path class="fil8" d="M1487.32 2725.23l470.22 232.96 76.83 -164.02c0,0 229.78,283.12 201.6,510.8l-246.34 -277.39c0,0 -122.33,310.67 -206.96,312.42 -139.28,2.88 -455.68,-446.76 -455.68,-446.76 0,0 106.67,-191.69 160.32,-167.99z"/>
   <path class="fil9" d="M-0 4716.99c132.42,15.09 353.97,742.97 353.97,742.97l1292.71 915.61 -857.25 0c-206.27,-84.09 -562.67,-237.51 -789.42,-380.15l0 -1278.43z"/>
  </g>
 </g>
</svg>
